<svg xmlns="http://www.w3.org/2000/svg" width="1440" height="362">
<rect width="100%" height="100%" fill="#111820"/>
<text x="18" y="30" fill="#e7f2ef" font-family="monospace" font-size="18">Set 22 Stage 0 - Entity Current State</text>
<rect x="10" y="35" width="1420" height="21" fill="#17242c"/>
<text x="18" y="50" fill="#d4dce0" font-family="monospace" font-size="12">entity.definition.creature.pig</text>
<text x="760" y="50" fill="#e4bc66" font-family="monospace" font-size="12">new_work</text>
<text x="930" y="50" fill="#9eb0b8" font-family="monospace" font-size="12">no legacy fallback</text>
<rect x="10" y="57" width="1420" height="21" fill="#142028"/>
<text x="18" y="72" fill="#d4dce0" font-family="monospace" font-size="12">entity.definition.creature.spider</text>
<text x="760" y="72" fill="#e4bc66" font-family="monospace" font-size="12">new_work</text>
<text x="930" y="72" fill="#9eb0b8" font-family="monospace" font-size="12">no legacy fallback</text>
<rect x="10" y="79" width="1420" height="21" fill="#17242c"/>
<text x="18" y="94" fill="#d4dce0" font-family="monospace" font-size="12">entity.definition.creature.wisp</text>
<text x="760" y="94" fill="#e4bc66" font-family="monospace" font-size="12">new_work</text>
<text x="930" y="94" fill="#9eb0b8" font-family="monospace" font-size="12">no legacy fallback</text>
<rect x="10" y="101" width="1420" height="21" fill="#142028"/>
<text x="18" y="116" fill="#d4dce0" font-family="monospace" font-size="12">entity.definition.family.goblin</text>
<text x="760" y="116" fill="#78c6a3" font-family="monospace" font-size="12">legacy_fallback_inventory</text>
<text x="930" y="116" fill="#9eb0b8" font-family="monospace" font-size="12">legacy.runtime.goblin_humanoid</text>
<rect x="10" y="123" width="1420" height="21" fill="#17242c"/>
<text x="18" y="138" fill="#d4dce0" font-family="monospace" font-size="12">entity.definition.npc.humanoid</text>
<text x="760" y="138" fill="#78c6a3" font-family="monospace" font-size="12">legacy_fallback_inventory</text>
<text x="930" y="138" fill="#9eb0b8" font-family="monospace" font-size="12">legacy.runtime.npc_humanoid</text>
<rect x="10" y="145" width="1420" height="21" fill="#142028"/>
<text x="18" y="160" fill="#d4dce0" font-family="monospace" font-size="12">entity.definition.player.humanoid</text>
<text x="760" y="160" fill="#78c6a3" font-family="monospace" font-size="12">legacy_fallback_inventory</text>
<text x="930" y="160" fill="#9eb0b8" font-family="monospace" font-size="12">legacy.runtime.player_humanoid</text>
<rect x="10" y="167" width="1420" height="21" fill="#17242c"/>
<text x="18" y="182" fill="#d4dce0" font-family="monospace" font-size="12">entity.definition.profession.builder</text>
<text x="760" y="182" fill="#78c6a3" font-family="monospace" font-size="12">legacy_fallback_inventory</text>
<text x="930" y="182" fill="#9eb0b8" font-family="monospace" font-size="12">legacy.runtime.npc_humanoid</text>
<rect x="10" y="189" width="1420" height="21" fill="#142028"/>
<text x="18" y="204" fill="#d4dce0" font-family="monospace" font-size="12">entity.definition.profession.elder</text>
<text x="760" y="204" fill="#78c6a3" font-family="monospace" font-size="12">legacy_fallback_inventory</text>
<text x="930" y="204" fill="#9eb0b8" font-family="monospace" font-size="12">legacy.runtime.npc_humanoid</text>
<rect x="10" y="211" width="1420" height="21" fill="#17242c"/>
<text x="18" y="226" fill="#d4dce0" font-family="monospace" font-size="12">entity.definition.profession.farmer</text>
<text x="760" y="226" fill="#78c6a3" font-family="monospace" font-size="12">legacy_fallback_inventory</text>
<text x="930" y="226" fill="#9eb0b8" font-family="monospace" font-size="12">legacy.runtime.npc_humanoid</text>
<rect x="10" y="233" width="1420" height="21" fill="#142028"/>
<text x="18" y="248" fill="#d4dce0" font-family="monospace" font-size="12">entity.definition.profession.guard</text>
<text x="760" y="248" fill="#78c6a3" font-family="monospace" font-size="12">legacy_fallback_inventory</text>
<text x="930" y="248" fill="#9eb0b8" font-family="monospace" font-size="12">legacy.runtime.npc_humanoid</text>
<rect x="10" y="255" width="1420" height="21" fill="#17242c"/>
<text x="18" y="270" fill="#d4dce0" font-family="monospace" font-size="12">entity.definition.profession.lumberjack</text>
<text x="760" y="270" fill="#78c6a3" font-family="monospace" font-size="12">legacy_fallback_inventory</text>
<text x="930" y="270" fill="#9eb0b8" font-family="monospace" font-size="12">legacy.runtime.npc_humanoid</text>
<rect x="10" y="277" width="1420" height="21" fill="#142028"/>
<text x="18" y="292" fill="#d4dce0" font-family="monospace" font-size="12">entity.definition.profession.mage</text>
<text x="760" y="292" fill="#78c6a3" font-family="monospace" font-size="12">legacy_fallback_inventory</text>
<text x="930" y="292" fill="#9eb0b8" font-family="monospace" font-size="12">legacy.runtime.npc_humanoid</text>
<rect x="10" y="299" width="1420" height="21" fill="#17242c"/>
<text x="18" y="314" fill="#d4dce0" font-family="monospace" font-size="12">entity.definition.profession.merchant</text>
<text x="760" y="314" fill="#78c6a3" font-family="monospace" font-size="12">legacy_fallback_inventory</text>
<text x="930" y="314" fill="#9eb0b8" font-family="monospace" font-size="12">legacy.runtime.npc_humanoid</text>
<rect x="10" y="321" width="1420" height="21" fill="#142028"/>
<text x="18" y="336" fill="#d4dce0" font-family="monospace" font-size="12">entity.definition.profession.miner</text>
<text x="760" y="336" fill="#78c6a3" font-family="monospace" font-size="12">legacy_fallback_inventory</text>
<text x="930" y="336" fill="#9eb0b8" font-family="monospace" font-size="12">legacy.runtime.npc_humanoid</text>
</svg>
